<?xml version="1.0" encoding="utf-8"?>
<!DOCTYPE svg PUBLIC "-//W3C//DTD SVG 1.1//EN" "http://www.w3.org/Graphics/SVG/1.1/DTD/svg11.dtd">
<svg version="1.1" id="Ebene_1" xmlns="http://www.w3.org/2000/svg" xmlns:xlink="http://www.w3.org/1999/xlink" x="0px" y="0px"
	 width="560px" height="560px" viewBox="0 0 560 560" enable-background="new 0 0 560 560" xml:space="preserve">
<circle fill="#FFFFFF" cx="280" cy="280" r="252.5"/>
<g>
	<path fill="#0057B0" d="M555,280c0,151.833-123.167,275-275,275C128.171,555,5,431.833,5,280C5,128.171,128.171,5,280,5
		C431.833,5,555,128.171,555,280z M369.872,198.354c1.795-0.352,3.581-6.798,4.661-8.236c2.146-2.509,5.013-3.936,7.88-5.365
		c6.077-2.509,12.17-3.223,18.607-4.3c6.094-1.425,13.604-1.425,18.266,3.94c-1.082-1.076,7.518-8.592,8.584-8.952
		c3.219-1.79,8.592-1.073,10.744-4.296c0.723-1.078,0.723-7.88,0.723-7.88c-6.094,0.717-8.24-5.012-8.592-10.025
		c0,0.361-0.723,1.437-2.155,2.867c0.36-5.376-6.453-1.437-8.951-2.149c-8.231-2.15-7.168-7.876-9.666-13.965
		c-1.433-3.223-5.371-4.3-6.806-7.523c-1.44-2.149-2.154-6.81-5.373-7.162c-2.152-0.352-6.093,7.522-6.806,7.162
		c-3.219-1.789-4.66,0.713-7.167,2.15c-2.152,1.437-3.931,0.713-6.093,1.798c6.455-2.151-2.859-5.729-6.086-5.013
		c5.014-1.429,2.515-6.802-0.359-9.312c0.72,0,1.071,0,1.794,0c-0.723-3.224-10.746-6.086-13.957-8.236
		c-3.227-2.15-20.41-5.729-23.991-3.58c-4.299,2.511,1.074,9.665,1.074,13.249c0.36,4.3-4.301,5.368-4.301,8.952
		c0,6.085,11.459,5.012,8.592,13.248c-1.784,5.013-8.592,6.089-11.466,10.025c-2.851,3.588,0.368,10.025,3.227,12.536
		c2.866,2.149-5.011,5.729-6.085,6.441c-6.094,2.863-10.744-6.089-12.179-11.462c-1.08-3.935-1.44-8.588-5.733-10.737
		c-2.154-0.713-8.943-1.789-10.386,0.36c-2.145-5.373-9.664-7.522-14.682-9.312c-7.161-2.506-13.239-2.506-20.762-1.425
		c2.51-0.361-0.724-11.462-6.81-9.673c1.797-3.584,1.072-7.522,1.797-11.098c0.712-2.867,2.149-5.729,4.288-8.24
		c0.724-1.434,8.6-9.672,6.097-10.025c6.085,0.717,12.879,1.078,17.899-3.935c3.211-3.224,4.653-8.592,7.864-12.175
		c4.668-5.365,10.386,1.433,15.396,1.789c7.176,0.361,6.815-7.522,2.867-11.101c4.652,0.352,0.722-8.236-1.793-9.313
		c-3.219-1.073-15.405,2.15-8.951,4.66c-1.427-0.712-10.026,17.188-15.039,8.239c-1.437-1.789-2.148-9.312-5.373-9.673
		c-2.854,0-4.652,3.224-5.725,5.373c1.793-4.66-10.025-7.875-12.536-8.235c5.373-3.579,1.073-7.523-2.867-9.672
		c-2.862-1.79-11.818-3.227-14.321-0.353c-6.801,8.236,7.17,9.309,10.746,11.458c1.073,0.717,5.373,3.224,2.863,5.013
		c-2.159,1.077-8.596,2.862-9.313,4.3c-2.146,3.223,2.51,6.802-0.72,10.025c-3.215-3.223-3.215-8.588-5.725-12.175
		c3.215,3.939-12.888,1.797-12.536,1.797c-5.373,0-13.965,3.576-17.899-1.797c-0.725-1.425-0.725-9.664,1.433-7.875
		c-3.224-2.51-5.373-5.013-7.523-6.45c-11.818,3.94-22.913,8.953-33.658,14.686c1.433,0.352,2.51,0.352,4.3-0.361
		c2.854-1.072,5.365-2.863,8.228-4.3c3.575-1.434,11.105-5.726,15.037-2.51c0.361-0.713,1.433-1.433,1.797-1.786
		c2.51,2.862,5.013,5.725,7.159,8.949c-2.855-1.434-7.523-0.713-10.737-0.361c-2.511,0.713-6.811,1.438-7.876,4.3
		c1.073,1.787,2.511,4.653,1.798,6.446c-4.661-3.223-8.239-8.596-14.686-9.309c-2.863,0-5.726,0-7.875,0.361
		c-34.375,18.973-63.377,46.545-84.148,79.495c1.437,1.426,2.863,2.511,4.3,2.863c3.576,1.073,0,11.458,6.811,6.085
		c2.146,1.79,2.509,4.3,1.072,6.802c0.361-0.36,14.678,8.948,15.75,9.673c2.511,2.149,6.45,4.652,7.523,7.522
		c0.716,2.511-1.433,5.365-3.583,6.445c-0.352-0.712-5.725-6.085-6.449-4.66c-1.073,1.79,0,11.462,3.939,11.102
		c-5.726,0.352-3.215,22.561-4.653,26.853c0,0.36,0.713,0.36,0.713,0.36c-1.073,4.3,2.509,21.124,9.672,19.338
		c-4.652,1.072,8.228,17.544,10.025,18.613c4.653,3.223,10.026,5.372,13.249,10.025c3.579,5.013,3.579,12.539,8.592,16.485
		c-1.437,4.285,7.522,9.298,7.163,15.384c-0.717,0.359-1.077,0.359-1.79,0.72c1.79,5.014,8.588,5.014,11.098,9.666
		c1.437,2.867,0,9.68,4.653,8.229c0.724-7.869-4.653-15.749-8.589-22.202c-2.149-3.573-4.299-6.808-6.089-10.386
		c-1.793-3.211-2.153-7.166-3.575-10.746c1.429,0.359,9.304,3.22,8.588,4.301c-2.863,7.165,11.462,19.689,15.401,24.341
		c1.073,1.09,9.301,11.834,5.013,11.834c4.648,0,11.098,7.159,13.24,10.73c3.224,5.373,2.511,12.187,4.66,17.897
		c2.15,7.182,12.175,10.384,17.9,13.611c5.013,2.514,9.305,6.085,14.317,7.871c7.522,2.851,9.309,0.345,15.758-0.72
		c9.313-1.442,10.385,8.943,17.901,12.883c4.652,2.514,14.676,6.087,19.692,3.94c-2.152,0.704,7.528,15.397,8.232,16.472
		c3.227,4.282,9.312,6.445,12.885,10.744c1.08-0.721,2.152-1.793,2.512-3.219c-1.432,3.933,5.373,11.45,8.954,10.746
		c3.938-0.721,5.011-8.592,5.011-11.467c-7.157,3.579-13.603,0.721-17.543-6.445c-0.721-1.794-6.453-11.818-1.44-11.818
		c6.813,0,2.146-5.373,1.44-10.386c-0.721-5.013-5.733-8.231-8.24-12.539c-2.145,4.299-9.304,3.219-11.466-0.359
		c0,1.072-1.068,2.858-1.068,4.299c-1.79,0-3.579,0.359-5.377-0.36c0.724-4.293,1.078-9.666,2.158-14.316
		c1.79-6.454,13.608-18.986-1.794-18.267c-5.376,0.362-7.523,2.507-9.312,7.16c-1.79,4.293-1.078,8.239-6.089,10.399
		c-3.215,1.435-13.961,0.723-17.184-1.08c-6.811-3.931-11.462-16.479-11.462-23.621c-0.36-9.674,4.652-18.266,0-27.239
		c2.149-1.786,4.292-5.356,6.802-7.159c2.158-1.427,4.66,1.08,5.733-3.211c-1.073-0.72-2.511-2.162-2.863-2.162
		c5.372,2.507,15.397-3.57,20.05,0c2.863,2.162,6.085,2.866,7.875-0.72c0.36-1.066-2.51-5.357-1.073-8.225
		c1.073,6.094,5.013,7.158,10.385,3.211c2.15,2.163,7.872,1.442,11.811,3.587c3.94,2.507,4.661,6.439,9.313,1.082
		c2.867,4.291,3.227,4.291,4.299,8.584c1.074,3.931,3.219,13.957,6.808,15.757c7.518,4.653,5.731-7.879,5.011-12.187
		c-0.359-0.359-0.359-12.186-0.72-12.186c-11.458-2.507-7.157-11.467-0.712-17.544c1.072-0.713,9.304-3.576,12.883-6.45
		c3.218-2.863,7.167-7.875,5.373-12.532c1.794,0,3.227-1.436,3.933-3.227c-1.074-0.352-5.373-3.936-6.088-3.575
		c2.515-1.438,2.155-3.588,0.715-5.729c3.587-2.146,1.8-6.086,5.373-7.52c3.938,5.365,11.826-0.716,7.877-5.012
		c3.573-5.013,11.827-2.515,13.965-7.163c5.374,1.425,1.435-5.377,4.302-9.313c2.506-3.223,6.797-3.223,10.023-5.012
		c0,0.36,8.944-5.013,6.085-5.365c6.088,0.713,18.258-5.729,8.952-11.102c1.435-3.223-3.219-4.66-6.453-5.365
		c2.515-0.712,5.733,0.713,7.88-0.712c4.652-3.223,1.434-4.66-2.507-5.725c-5.013-1.437-11.466,1.786-15.397,4.296
		C375.245,193.703,373.453,197.641,369.872,198.354z M445.43,437.91c-2.146-2.162-6.085-1.448-8.952-2.866
		c-2.858-1.081-5.013-2.146-8.592-2.867c0.721-7.157-7.167-9.664-12.18-13.229c-4.651-3.579-7.526-7.525-14.317-6.102
		c-0.72,0.36-7.869,2.867-6.445,4.293c-4.661-3.933-6.813-6.085-12.891-7.863c-5.733-1.803-9.666-8.944-15.399-2.507
		c-2.866,2.858-1.432,7.176-2.866,10.026c-4.643-3.933,4.309-8.584,0.729-12.893c-4.3-5.013-11.819,3.227-15.397,5.381
		c-2.154,1.794-4.661,2.515-6.102,4.661c-1.786,2.504-2.506,5.725-3.923,8.222c-1.09-2.858-7.167-2.152-7.527-4.291
		c1.425,8.6,1.425,17.544,3.219,26.144c1.074,5.013,0,13.252-4.299,17.199c-4.293,3.923-9.666,8.224-10.386,14.309
		c-0.713,4.301,0.359,8.232,4.301,9.313c0.359,5.373-5.728,9.313-5.382,15.045c0,0.354,0.368,3.925,0.729,5.727
		C368.8,496.996,412.487,472.638,445.43,437.91z"/>
</g>
</svg>
