<?xml version="1.0" encoding="utf-8"?>
<!DOCTYPE svg PUBLIC "-//W3C//DTD SVG 1.1//EN" "http://www.w3.org/Graphics/SVG/1.1/DTD/svg11.dtd">
<svg version="1.1" id="Ebene_1" xmlns="http://www.w3.org/2000/svg" xmlns:xlink="http://www.w3.org/1999/xlink" x="0px" y="0px"
	 width="210px" height="70px" viewBox="0 0 210 70" enable-background="new 0 0 210 70" xml:space="preserve">
<circle fill="#FFFFFF" cx="34.5" cy="35" r="30.5"/>
<g>
	<path fill="#0057B0" d="M68.578,35c0,18.932-15.358,34.289-34.289,34.289S0,53.932,0,35C0,16.069,15.358,0.711,34.289,0.711
		S68.578,16.069,68.578,35z M45.495,24.82c0.224-0.044,0.447-0.848,0.581-1.027c0.268-0.313,0.625-0.491,0.982-0.669
		c0.759-0.313,1.518-0.402,2.321-0.536c0.759-0.178,1.696-0.178,2.277,0.491c-0.135-0.134,0.938-1.071,1.071-1.116
		c0.401-0.223,1.071-0.134,1.339-0.536c0.09-0.134,0.09-0.982,0.09-0.982c-0.759,0.089-1.027-0.625-1.071-1.25
		c0,0.045-0.09,0.179-0.269,0.357c0.045-0.67-0.804-0.179-1.116-0.268c-1.026-0.268-0.893-0.982-1.205-1.741
		c-0.179-0.402-0.67-0.536-0.849-0.938c-0.179-0.268-0.268-0.849-0.67-0.893c-0.268-0.044-0.759,0.938-0.848,0.893
		c-0.402-0.223-0.581,0.089-0.894,0.268c-0.268,0.179-0.49,0.089-0.759,0.224c0.804-0.268-0.357-0.714-0.759-0.625
		c0.625-0.178,0.313-0.848-0.045-1.161c0.09,0,0.134,0,0.224,0c-0.09-0.402-1.34-0.759-1.741-1.027
		c-0.402-0.268-2.545-0.714-2.991-0.446c-0.536,0.313,0.134,1.205,0.134,1.652c0.045,0.536-0.536,0.669-0.536,1.116
		c0,0.759,1.429,0.625,1.071,1.652c-0.223,0.625-1.071,0.759-1.429,1.25c-0.356,0.447,0.045,1.25,0.402,1.563
		c0.357,0.268-0.625,0.714-0.759,0.803c-0.76,0.357-1.34-0.759-1.519-1.429c-0.134-0.491-0.179-1.071-0.714-1.339
		c-0.269-0.089-1.116-0.223-1.295,0.045c-0.268-0.67-1.205-0.938-1.831-1.161c-0.893-0.313-1.651-0.313-2.589-0.178
		c0.313-0.045-0.09-1.429-0.849-1.206c0.224-0.447,0.134-0.938,0.224-1.384c0.089-0.357,0.268-0.714,0.535-1.027
		c0.09-0.179,1.072-1.206,0.76-1.25c0.759,0.089,1.606,0.134,2.232-0.491c0.401-0.402,0.58-1.071,0.981-1.518
		c0.581-0.669,1.295,0.179,1.92,0.223c0.894,0.045,0.849-0.938,0.357-1.384c0.58,0.044,0.089-1.027-0.224-1.161
		c-0.401-0.134-1.92,0.268-1.116,0.581c-0.178-0.089-1.25,2.143-1.875,1.027c-0.179-0.223-0.268-1.161-0.67-1.206
		c-0.356,0-0.58,0.402-0.714,0.67c0.224-0.581-1.25-0.982-1.563-1.027c0.67-0.446,0.134-0.938-0.357-1.206
		c-0.357-0.223-1.474-0.402-1.786-0.044c-0.848,1.027,0.894,1.161,1.34,1.429c0.134,0.089,0.67,0.402,0.357,0.625
		c-0.269,0.134-1.072,0.357-1.161,0.536c-0.268,0.402,0.313,0.848-0.09,1.25c-0.401-0.402-0.401-1.071-0.714-1.518
		c0.401,0.491-1.607,0.224-1.563,0.224c-0.67,0-1.741,0.446-2.232-0.224c-0.09-0.178-0.09-1.205,0.179-0.982
		c-0.402-0.313-0.67-0.625-0.938-0.804c-1.474,0.491-2.857,1.116-4.197,1.831c0.179,0.044,0.313,0.044,0.536-0.045
		c0.356-0.134,0.669-0.357,1.026-0.536c0.446-0.179,1.385-0.714,1.875-0.313c0.045-0.089,0.179-0.179,0.224-0.223
		c0.313,0.357,0.625,0.714,0.893,1.116c-0.356-0.179-0.938-0.089-1.339-0.045c-0.313,0.089-0.849,0.179-0.982,0.536
		c0.134,0.223,0.313,0.58,0.224,0.804c-0.581-0.402-1.027-1.072-1.831-1.161c-0.357,0-0.714,0-0.982,0.045
		c-4.286,2.366-7.902,5.804-10.492,9.912c0.179,0.178,0.357,0.313,0.536,0.357c0.446,0.134,0,1.429,0.849,0.759
		c0.268,0.223,0.313,0.536,0.134,0.848c0.045-0.045,1.83,1.116,1.964,1.206c0.313,0.268,0.804,0.58,0.938,0.938
		c0.089,0.313-0.179,0.669-0.447,0.804c-0.044-0.089-0.714-0.759-0.804-0.581c-0.134,0.223,0,1.429,0.491,1.384
		c-0.714,0.044-0.401,2.813-0.58,3.348c0,0.045,0.089,0.045,0.089,0.045c-0.134,0.536,0.313,2.634,1.206,2.411
		c-0.58,0.134,1.026,2.188,1.25,2.321c0.58,0.402,1.25,0.67,1.652,1.25c0.446,0.625,0.446,1.563,1.071,2.056
		c-0.179,0.534,0.938,1.159,0.893,1.918c-0.089,0.045-0.134,0.045-0.223,0.09c0.223,0.625,1.071,0.625,1.384,1.205
		c0.179,0.357,0,1.207,0.58,1.026c0.09-0.981-0.58-1.964-1.071-2.769c-0.268-0.445-0.536-0.848-0.759-1.295
		c-0.224-0.4-0.269-0.893-0.446-1.34c0.178,0.045,1.16,0.402,1.071,0.537c-0.357,0.893,1.429,2.455,1.92,3.035
		c0.134,0.135,1.16,1.475,0.625,1.475c0.58,0,1.384,0.893,1.651,1.338c0.402,0.67,0.313,1.52,0.581,2.232
		c0.268,0.895,1.518,1.295,2.232,1.697c0.625,0.313,1.16,0.759,1.785,0.982c0.938,0.355,1.161,0.043,1.965-0.09
		c1.161-0.18,1.295,1.115,2.232,1.606c0.58,0.313,1.83,0.759,2.456,0.491c-0.269,0.089,0.938,1.92,1.026,2.054
		c0.402,0.535,1.161,0.804,1.607,1.34c0.134-0.09,0.268-0.224,0.313-0.401c-0.179,0.49,0.67,1.428,1.116,1.34
		c0.491-0.09,0.625-1.072,0.625-1.43c-0.893,0.446-1.696,0.09-2.188-0.804c-0.09-0.224-0.804-1.474-0.179-1.474
		c0.849,0,0.268-0.67,0.179-1.295c-0.09-0.625-0.715-1.026-1.027-1.563c-0.268,0.536-1.16,0.401-1.429-0.045
		c0,0.134-0.134,0.356-0.134,0.536c-0.223,0-0.446,0.045-0.67-0.045c0.09-0.535,0.134-1.205,0.269-1.785
		c0.223-0.805,1.696-2.367-0.224-2.277c-0.67,0.045-0.938,0.313-1.161,0.893c-0.223,0.535-0.134,1.027-0.759,1.296
		c-0.401,0.179-1.741,0.09-2.143-0.134c-0.849-0.491-1.429-2.055-1.429-2.946c-0.045-1.206,0.58-2.277,0-3.396
		c0.268-0.223,0.535-0.668,0.848-0.893c0.269-0.178,0.581,0.135,0.715-0.4c-0.134-0.09-0.313-0.27-0.357-0.27
		c0.67,0.313,1.92-0.445,2.5,0c0.357,0.27,0.759,0.357,0.982-0.09c0.045-0.133-0.313-0.668-0.134-1.025
		c0.134,0.76,0.625,0.893,1.295,0.4c0.268,0.27,0.982,0.18,1.473,0.447c0.491,0.313,0.581,0.803,1.161,0.135
		c0.357,0.535,0.402,0.535,0.536,1.07c0.134,0.491,0.401,1.741,0.848,1.965c0.938,0.58,0.715-0.982,0.626-1.519
		c-0.045-0.045-0.045-1.519-0.09-1.519c-1.429-0.313-0.893-1.43-0.089-2.188c0.134-0.089,1.16-0.446,1.607-0.804
		c0.401-0.357,0.893-0.982,0.669-1.563c0.224,0,0.402-0.179,0.491-0.402c-0.134-0.044-0.67-0.491-0.759-0.446
		c0.313-0.179,0.268-0.447,0.089-0.714c0.447-0.268,0.224-0.759,0.67-0.938c0.491,0.669,1.474-0.089,0.982-0.625
		c0.446-0.625,1.474-0.313,1.741-0.893c0.67,0.178,0.179-0.67,0.536-1.161c0.313-0.402,0.848-0.402,1.25-0.625
		c0,0.045,1.116-0.625,0.759-0.669c0.759,0.089,2.277-0.714,1.116-1.384c0.179-0.402-0.401-0.581-0.804-0.669
		c0.313-0.089,0.715,0.089,0.982-0.089c0.58-0.402,0.179-0.581-0.313-0.714c-0.625-0.179-1.429,0.223-1.92,0.536
		C46.165,24.24,45.942,24.731,45.495,24.82z M54.916,54.689c-0.268-0.269-0.759-0.18-1.116-0.357
		c-0.357-0.135-0.625-0.268-1.071-0.357c0.089-0.893-0.894-1.205-1.519-1.65c-0.58-0.446-0.938-0.938-1.785-0.76
		c-0.09,0.045-0.982,0.357-0.804,0.535c-0.581-0.49-0.849-0.759-1.607-0.981c-0.715-0.224-1.206-1.115-1.92-0.313
		c-0.357,0.357-0.179,0.895-0.357,1.25c-0.58-0.49,0.536-1.07,0.09-1.607c-0.536-0.625-1.474,0.402-1.92,0.671
		c-0.269,0.224-0.581,0.313-0.76,0.581c-0.223,0.313-0.313,0.714-0.49,1.025c-0.135-0.356-0.894-0.268-0.938-0.535
		c0.178,1.072,0.178,2.188,0.401,3.26c0.134,0.625,0,1.652-0.536,2.145c-0.535,0.489-1.205,1.025-1.295,1.784
		c-0.089,0.536,0.045,1.026,0.536,1.161c0.045,0.67-0.714,1.161-0.67,1.876c0,0.044,0.045,0.489,0.09,0.714
		C45.361,62.057,50.809,59.02,54.916,54.689z"/>
</g>
<rect x="74" y="42" fill="#0057B0" width="136" height="2"/>
<g>
	<path fill="#0057B0" d="M79.973,33.55V21.824h-2.055v-4.271h2.055v-0.567c0-1.748,0.633-3.934,2.072-5.229
		c1.31-1.229,3.133-1.667,4.646-1.667c1.134,0,1.94,0.114,2.702,0.308l-0.128,4.467c-0.404-0.129-0.906-0.194-1.523-0.194
		c-1.211,0-1.958,0.94-1.958,2.105v0.777h2.948v4.271h-2.858V33.55H79.973z"/>
	<path fill="#0057B0" d="M91.074,10.463h5.893v8.773h0.03c0.534-0.648,1.166-1.166,1.912-1.49c0.678-0.372,1.568-0.566,2.444-0.566
		c3.609,0,5.567,2.573,5.567,7.09v9.28h-5.825v-8.633c0-1.878-0.634-3.027-2.14-3.027c-1.067,0-1.585,0.682-1.843,1.279
		c-0.131,0.259-0.146,0.696-0.146,0.956v9.425h-5.893L91.074,10.463L91.074,10.463z"/>
	<path fill="#0057B0" d="M110.67,28.641c0.906,0.566,2.979,1.215,4.484,1.215c1.195,0,1.699-0.31,1.699-0.892
		c0-0.583-0.373-0.842-2.071-1.409c-3.497-1.1-4.744-3.026-4.661-4.854c0-3.206,2.703-5.521,6.861-5.521
		c1.957,0,3.738,0.438,4.774,0.905l-0.922,3.983c-0.762-0.373-2.284-0.891-3.579-0.891c-0.951,0-1.568,0.259-1.568,0.939
		c0,0.519,0.518,0.842,2.429,1.44c3.124,1.035,4.303,2.688,4.388,4.969c0,3.076-2.414,5.384-7.333,5.384
		c-2.202,0-4.228-0.491-5.438-1.142L110.67,28.641z"/>
	<path fill="#0057B0" d="M133.086,23.218v3.804h-8.742v-3.804H133.086z"/>
	<path fill="#0057B0" d="M135.898,10.463h5.826v8.708h0.031c0.975-1.215,2.543-1.991,4.6-1.991c3.77,0,6.586,3.141,6.556,8.045
		c0,5.795-3.692,8.686-7.416,8.686c-1.685,0-3.412-0.622-4.531-2.422h-0.03l-0.244,2.062h-4.918
		c0.029-1.041,0.129-3.097,0.129-5.088v-18H135.898z M141.727,26.584c0,0.309,0.015,0.583,0.03,0.826
		c0.242,0.986,1.149,1.927,2.313,1.927c1.768,0,2.832-1.329,2.832-3.853c0-2.187-0.821-3.805-2.832-3.805
		c-1.081,0-2.086,0.842-2.313,1.992c-0.017,0.258-0.03,0.518-0.03,0.776V26.584z"/>
	<path fill="#0057B0" d="M169.934,29.661c0,1.568,0.031,3.09,0.26,3.889h-5.276l-0.358-1.414h-0.113
		c-1.082,1.283-2.721,1.774-4.418,1.774c-3.236,0-5.276-2.373-5.276-5.061c0-4.272,3.854-6.149,9.274-6.199v-0.129
		c0-0.647-0.502-1.359-2.588-1.359c-1.684,0-3.48,0.582-4.516,1.215l-1.038-3.74c1.038-0.552,3.269-1.457,6.603-1.457
		c5.521,0,7.447,3.076,7.447,7.074V29.661L169.934,29.661z M164.186,26.245c-2.347,0-3.738,0.663-3.738,2.071
		c0,1.021,0.729,1.539,1.666,1.539c0.875,0,1.783-0.584,2.041-1.475c0.031-0.259,0.031-0.566,0.031-0.841V26.245z"/>
	<path fill="#0057B0" d="M173.668,28.641c0.906,0.566,2.979,1.215,4.418,1.215c1.264,0,1.698-0.31,1.698-0.892
		c0-0.583-0.306-0.842-2.071-1.409c-3.497-1.1-4.676-3.026-4.661-4.854c0-3.206,2.703-5.521,6.859-5.521
		c2.026,0,3.81,0.438,4.846,0.905l-0.989,3.983c-0.763-0.373-2.218-0.891-3.512-0.891c-1.02,0-1.637,0.259-1.637,0.939
		c0,0.519,0.517,0.842,2.428,1.44c3.191,1.035,4.371,2.688,4.387,4.969c0,3.076-2.345,5.384-7.332,5.384
		c-2.201,0-4.158-0.491-5.438-1.142L173.668,28.641z"/>
	<path fill="#0057B0" d="M194.074,13.116c0,1.554-1.167,2.817-2.992,2.817c-1.813,0-2.963-1.264-2.963-2.817
		c0-1.567,1.164-2.768,2.979-2.768C192.907,10.349,194.059,11.549,194.074,13.116z M188.148,33.55V17.553h5.894V33.55H188.148z"/>
	<path fill="#0057B0" d="M209.918,33.221c-1.005,0.432-2.604,0.689-4.4,0.689c-5.293,0-8.645-3.134-8.645-8.232
		c0-4.565,3.107-8.498,9.322-8.498c1.164,0,2.572,0.179,3.723,0.566l-0.875,4.322c-0.533-0.244-1.309-0.438-2.477-0.438
		c-2.199,0-3.737,1.523-3.737,3.854c0,2.589,1.812,3.853,3.866,3.853c1.021,0,1.828-0.114,2.576-0.423L209.918,33.221z"/>
</g>
<g>
	<path fill="#666666" d="M85.719,60.875c-0.406,0.212-1.263,0.43-2.346,0.43c-2.503,0-4.373-1.591-4.373-4.517
		c0-2.796,1.883-4.658,4.637-4.658c1.098,0,1.807,0.235,2.108,0.394l-0.288,0.933c-0.424-0.203-1.041-0.367-1.779-0.367
		c-2.079,0-3.464,1.333-3.464,3.661c0,2.191,1.254,3.577,3.398,3.577c0.712,0,1.42-0.146,1.888-0.375L85.719,60.875z"/>
	<path fill="#666666" d="M94.655,57.255c-0.065-1.241-0.148-2.745-0.148-3.839h-0.026c-0.315,1.029-0.668,2.152-1.118,3.372
		L91.794,61.1h-0.873l-1.446-4.226c-0.424-1.267-0.765-2.401-1.014-3.458h-0.03c-0.023,1.109-0.088,2.585-0.167,3.93l-0.24,3.807
		h-1.092l0.621-8.877h1.463l1.512,4.299c0.371,1.088,0.664,2.066,0.896,2.984h0.03c0.232-0.893,0.551-1.871,0.944-2.984l1.582-4.299
		h1.463l0.555,8.877h-1.132L94.655,57.255z"/>
	<path fill="#666666" d="M97.618,59.753c0.512,0.329,1.253,0.585,2.042,0.585c1.171,0,1.857-0.624,1.857-1.52
		c0-0.816-0.475-1.301-1.672-1.756c-1.449-0.524-2.346-1.293-2.346-2.524c0-1.384,1.145-2.408,2.872-2.408
		c0.896,0,1.567,0.202,1.95,0.433l-0.313,0.939c-0.279-0.18-0.873-0.427-1.676-0.427c-1.211,0-1.675,0.729-1.675,1.331
		c0,0.826,0.542,1.232,1.765,1.712c1.501,0.586,2.254,1.306,2.254,2.604c0,1.371-1.004,2.58-3.093,2.58
		c-0.86,0-1.794-0.271-2.271-0.586L97.618,59.753z"/>
	<path fill="#666666" d="M105.508,52.991c0,0.393-0.275,0.7-0.738,0.7c-0.421,0-0.695-0.309-0.695-0.7
		c0-0.409,0.29-0.729,0.728-0.729C105.223,52.262,105.508,52.576,105.508,52.991z M104.218,61.15v-6.368h1.155v6.368H104.218z"/>
	<path fill="#666666" d="M107.301,56.499c0-0.667-0.025-1.192-0.051-1.717h1.018l0.045,1.036h0.039
		c0.354-0.604,0.951-1.168,2.015-1.168c0.86,0,1.522,0.523,1.798,1.265h0.02c0.205-0.358,0.469-0.621,0.729-0.826
		c0.381-0.286,0.787-0.438,1.397-0.438c0.859,0,2.104,0.552,2.104,2.762v3.74h-1.127v-3.596c0-1.232-0.466-1.961-1.384-1.961
		c-0.668,0-1.174,0.484-1.387,1.035c-0.051,0.17-0.092,0.374-0.092,0.586v3.936h-1.137v-3.825c0-1.003-0.443-1.731-1.33-1.731
		c-0.71,0-1.253,0.576-1.43,1.154c-0.074,0.157-0.1,0.374-0.1,0.563v3.84h-1.13L107.301,56.499L107.301,56.499z"/>
	<path fill="#666666" d="M118.286,56.859c0-0.819-0.021-1.482-0.045-2.077h1.021l0.065,1.088h0.026
		c0.459-0.781,1.229-1.22,2.265-1.22c1.554,0,2.716,1.3,2.716,3.221c0,2.298-1.41,3.434-2.904,3.434
		c-0.848,0-1.591-0.373-1.971-1.006h-0.025v3.467h-1.147V56.859z M119.436,58.555c0,0.168,0.013,0.334,0.059,0.479
		c0.203,0.801,0.906,1.352,1.732,1.352c1.228,0,1.935-0.996,1.935-2.461c0-1.267-0.668-2.354-1.896-2.354
		c-0.787,0-1.543,0.549-1.746,1.423c-0.045,0.146-0.084,0.308-0.084,0.45V58.555L119.436,58.555z"/>
	<path fill="#666666" d="M125.786,51.794h1.161v9.356h-1.161V51.794z"/>
	<path fill="#666666" d="M129.537,58.174c0.025,1.566,1.018,2.21,2.186,2.21c0.836,0,1.354-0.146,1.771-0.319l0.212,0.824
		c-0.416,0.187-1.123,0.416-2.133,0.416c-1.962,0-3.146-1.314-3.146-3.236c0-1.924,1.135-3.418,3-3.418
		c2.092,0,2.631,1.814,2.631,2.986c0,0.234-0.015,0.404-0.039,0.537H129.537z M132.943,57.346c0.014-0.729-0.31-1.869-1.613-1.869
		c-1.182,0-1.688,1.063-1.78,1.869H132.943z"/>
	<path fill="#666666" d="M141.126,62.143v0.656h-6.597v-0.656H141.126z"/>
	<path fill="#666666" d="M146.977,61.15l-1.142-1.961c-0.458-0.754-0.731-1.24-1.008-1.76h-0.036
		c-0.248,0.52-0.51,0.991-0.955,1.773l-1.07,1.947h-1.318l2.717-4.496l-2.604-4.381h1.323l1.183,2.078
		c0.322,0.586,0.57,1.023,0.813,1.504h0.032c0.257-0.523,0.48-0.932,0.814-1.504l1.193-2.078h1.324l-2.695,4.324l2.77,4.553H146.977
		L146.977,61.15z"/>
	<path fill="#666666" d="M150.79,52.273v3.715h4.299v-3.715h1.161v8.877h-1.161v-4.158h-4.299v4.158h-1.161v-8.877H150.79z"/>
	<path fill="#666666" d="M162.173,53.252h-2.702v-0.979h6.573v0.979h-2.711v7.898h-1.16V53.252z"/>
	<path fill="#666666" d="M166.709,58.174c0.023,1.566,1.018,2.21,2.186,2.21c0.823,0,1.344-0.146,1.765-0.319l0.209,0.824
		c-0.407,0.187-1.122,0.416-2.134,0.416c-1.961,0-3.135-1.314-3.135-3.236c0-1.924,1.135-3.418,2.99-3.418
		c2.1,0,2.639,1.814,2.639,2.986c0,0.234-0.013,0.404-0.037,0.537H166.709z M170.105,57.346c0.014-0.729-0.301-1.869-1.606-1.869
		c-1.188,0-1.694,1.063-1.776,1.869H170.105z"/>
	<path fill="#666666" d="M172.659,56.499c0-0.667-0.027-1.192-0.046-1.717h1.011l0.052,1.036h0.038
		c0.354-0.604,0.954-1.168,2.017-1.168c0.858,0,1.516,0.523,1.791,1.265h0.025c0.204-0.358,0.467-0.621,0.729-0.826
		c0.382-0.286,0.787-0.438,1.398-0.438c0.859,0,2.104,0.552,2.104,2.762v3.74h-1.125v-3.596c0-1.232-0.467-1.961-1.385-1.961
		c-0.681,0-1.175,0.484-1.386,1.035c-0.06,0.17-0.099,0.374-0.099,0.586v3.936h-1.137v-3.825c0-1.003-0.438-1.731-1.324-1.731
		c-0.715,0-1.254,0.576-1.437,1.154c-0.067,0.157-0.093,0.374-0.093,0.563v3.84h-1.135L172.659,56.499L172.659,56.499z"/>
	<path fill="#666666" d="M183.65,56.859c0-0.819-0.027-1.482-0.053-2.077h1.028l0.063,1.088h0.021
		c0.467-0.781,1.229-1.22,2.271-1.22c1.555,0,2.709,1.3,2.709,3.221c0,2.298-1.402,3.434-2.914,3.434
		c-0.836,0-1.573-0.373-1.953-1.006h-0.025v3.467h-1.146V56.859L183.65,56.859z M184.798,58.555c0,0.168,0.013,0.334,0.044,0.479
		c0.219,0.801,0.922,1.352,1.747,1.352c1.228,0,1.935-0.996,1.935-2.461c0-1.267-0.668-2.354-1.896-2.354
		c-0.795,0-1.543,0.549-1.75,1.423c-0.048,0.146-0.08,0.308-0.08,0.45V58.555z"/>
	<path fill="#666666" d="M191.148,51.794h1.162v9.356h-1.162V51.794z"/>
	<path fill="#666666" d="M198.732,59.622c0,0.56,0.025,1.097,0.1,1.528h-1.042l-0.093-0.807h-0.049
		c-0.346,0.506-1.037,0.959-1.946,0.959c-1.293,0-1.949-0.92-1.949-1.839c0-1.542,1.372-2.38,3.836-2.366v-0.132
		c0-0.511-0.142-1.478-1.446-1.472c-0.61,0-1.229,0.179-1.673,0.479l-0.263-0.772c0.523-0.337,1.304-0.552,2.105-0.552
		c1.946,0,2.42,1.324,2.42,2.592V59.622L198.732,59.622z M197.609,57.896c-1.266-0.025-2.695,0.196-2.695,1.438
		c0,0.761,0.499,1.108,1.074,1.108c0.849,0,1.386-0.524,1.576-1.073c0.033-0.136,0.045-0.269,0.045-0.363V57.896z"/>
	<path fill="#666666" d="M201.949,53.252v1.529h1.658v0.869h-1.658v3.442c0,0.791,0.223,1.244,0.871,1.244
		c0.313,0,0.5-0.024,0.67-0.086l0.061,0.886c-0.23,0.079-0.586,0.166-1.039,0.166c-0.537,0-0.971-0.191-1.244-0.492
		c-0.322-0.354-0.455-0.927-0.455-1.674V55.65h-0.99v-0.868h0.99v-1.196L201.949,53.252z"/>
	<path fill="#666666" d="M205.484,58.174c0.021,1.566,1.012,2.21,2.187,2.21c0.825,0,1.337-0.146,1.767-0.319l0.207,0.824
		c-0.406,0.187-1.123,0.416-2.129,0.416c-1.972,0-3.14-1.314-3.14-3.236c0-1.924,1.129-3.418,2.983-3.418
		c2.103,0,2.641,1.814,2.641,2.986c0,0.234-0.014,0.404-0.039,0.537H205.484z M208.877,57.346c0.014-0.729-0.302-1.869-1.6-1.869
		c-1.196,0-1.695,1.063-1.782,1.869H208.877z"/>
</g>
</svg>
