<?xml version="1.0" standalone="no"?>
<!DOCTYPE svg PUBLIC "-//W3C//DTD SVG 20010904//EN"
 "http://www.w3.org/TR/2001/REC-SVG-20010904/DTD/svg10.dtd">
<svg version="1.0" xmlns="http://www.w3.org/2000/svg"
 width="700.000000pt" height="700.000000pt" viewBox="0 0 700.000000 700.000000"
 preserveAspectRatio="xMidYMid meet">
<metadata>
Created by potrace 1.11, written by Peter Selinger 2001-2013
</metadata>
<g transform="translate(0.000000,700.000000) scale(0.100000,-0.100000)"
fill="#000000" stroke="none">
<path d="M3350 6934 c-364 -24 -618 -71 -923 -170 -1030 -336 -1855 -1161
-2191 -2191 -79 -244 -131 -487 -157 -738 -16 -154 -16 -516 0 -670 118 -1146
785 -2146 1796 -2693 386 -208 838 -346 1290 -393 154 -16 516 -16 670 0 1146
118 2146 785 2693 1796 208 386 346 838 393 1290 16 154 16 516 0 670 -118
1146 -785 2146 -1796 2693 -382 207 -849 349 -1280 391 -115 11 -414 20 -495
15z m-114 -671 c17 -8 42 -25 55 -39 20 -22 22 -28 12 -54 -6 -17 -8 -31 -5
-33 4 -2 27 -10 51 -17 24 -8 55 -26 70 -41 l26 -26 18 23 c10 13 28 24 41 24
20 0 29 -11 52 -66 44 -104 66 -105 152 -7 36 41 48 61 41 70 -20 23 76 62
121 48 35 -11 71 -115 39 -115 -5 0 -3 -10 5 -22 34 -48 9 -118 -41 -118 -13
0 -51 11 -83 25 -81 34 -103 27 -147 -44 -70 -111 -79 -122 -119 -141 -28 -14
-61 -20 -107 -20 -42 0 -67 -4 -67 -11 0 -6 -27 -46 -59 -90 -45 -59 -62 -91
-69 -131 -18 -90 -23 -138 -15 -136 33 9 83 -50 83 -99 0 -16 7 -18 74 -15
118 5 272 -44 335 -106 22 -22 33 -25 77 -23 69 3 107 -17 128 -69 9 -22 16
-46 16 -53 0 -25 50 -118 76 -142 32 -30 53 -31 103 -6 63 33 68 45 36 90 -14
22 -29 57 -32 78 -5 36 -2 41 37 73 150 126 154 141 46 223 -43 33 -45 56 -11
101 29 38 31 66 10 126 -33 93 -12 117 94 106 36 -4 93 -14 126 -22 79 -21
250 -105 251 -124 0 -8 6 -28 12 -43 15 -36 15 -54 0 -63 -6 -4 7 -14 33 -25
29 -11 43 -23 43 -33 -2 -20 24 -14 72 15 17 11 43 19 56 19 18 0 33 11 53 40
15 22 36 40 46 40 19 0 59 -44 59 -66 0 -7 22 -36 49 -64 37 -38 52 -65 65
-110 24 -84 57 -110 141 -110 35 0 67 -5 70 -10 5 -8 11 -7 21 1 11 9 14 7 14
-12 0 -39 36 -89 70 -96 27 -5 30 -9 30 -45 0 -56 -14 -76 -63 -88 -73 -19
-93 -30 -142 -80 l-48 -49 -29 22 c-62 46 -317 19 -448 -46 -57 -28 -68 -39
-93 -86 -15 -30 -25 -56 -22 -59 3 -3 23 14 45 37 58 61 137 95 206 89 34 -3
62 -11 72 -22 16 -16 16 -18 -7 -37 -13 -11 -39 -19 -60 -19 l-36 -1 33 -14
c20 -9 32 -21 32 -33 0 -10 9 -27 20 -37 45 -41 12 -89 -80 -116 -25 -7 -54
-22 -65 -32 -11 -11 -45 -30 -75 -44 -93 -40 -104 -48 -117 -73 -7 -14 -13
-42 -13 -62 0 -28 -4 -38 -16 -38 -8 0 -22 -7 -30 -15 -9 -8 -41 -22 -72 -31
-72 -21 -90 -36 -84 -73 3 -23 -2 -33 -23 -47 -23 -15 -32 -16 -57 -6 -17 6
-34 9 -39 7 -16 -10 -49 -93 -43 -109 3 -9 1 -23 -6 -31 -10 -12 -6 -18 23
-35 38 -22 40 -42 7 -60 -11 -6 -16 -17 -13 -29 7 -26 -30 -93 -69 -126 -18
-16 -62 -41 -98 -58 -92 -41 -144 -107 -138 -175 3 -31 9 -40 40 -57 42 -22
44 -27 53 -195 5 -84 4 -109 -8 -125 -32 -43 -93 19 -122 125 -22 77 -43 134
-59 155 -13 18 -15 18 -38 3 -24 -16 -27 -15 -72 14 -68 44 -145 59 -225 42
-30 -6 -37 -3 -58 22 -24 31 -29 22 -13 -22 24 -61 -15 -87 -81 -53 -39 20
-48 20 -110 10 -37 -6 -85 -11 -105 -11 -34 0 -36 -1 -20 -13 17 -13 17 -14 1
-30 -9 -9 -27 -17 -40 -17 -16 0 -37 -16 -63 -46 -36 -43 -39 -50 -30 -77 7
-19 8 -65 2 -131 -18 -222 -6 -301 63 -403 47 -70 85 -88 195 -88 103 0 125
14 151 99 22 69 48 102 93 116 37 12 99 6 122 -12 19 -16 15 -38 -24 -118 -33
-69 -64 -188 -64 -246 0 -21 5 -24 35 -24 28 0 35 4 35 20 0 24 0 24 36 5 37
-19 64 -19 93 1 14 10 26 13 30 7 3 -5 22 -29 43 -54 37 -45 85 -176 75 -203
-3 -8 -18 -16 -34 -18 -39 -4 -41 -33 -7 -108 46 -104 130 -157 204 -132 29
10 30 10 30 -16 0 -15 -9 -46 -20 -69 -16 -35 -24 -43 -46 -43 -33 0 -104 70
-104 103 0 20 -1 20 -16 5 -16 -15 -20 -14 -58 15 -91 71 -151 142 -191 224
-28 57 -45 80 -55 77 -31 -8 -137 17 -196 46 -44 21 -75 46 -105 84 -66 81
-92 93 -179 78 -131 -22 -116 -27 -400 127 -147 80 -163 100 -191 251 -19 106
-60 170 -140 222 -27 17 -49 39 -49 48 0 25 -56 108 -114 170 -113 121 -156
188 -156 245 0 21 -8 30 -46 46 -25 12 -48 19 -50 17 -12 -12 36 -126 93 -222
92 -153 123 -223 123 -273 0 -68 -32 -51 -45 23 -7 44 -26 66 -86 103 -47 27
-69 53 -51 58 22 8 13 40 -33 106 -25 37 -45 71 -45 78 0 6 -9 23 -19 38 -11
15 -31 57 -46 93 -37 92 -63 124 -152 182 -63 42 -87 65 -131 130 -29 43 -55
91 -58 106 -4 15 -16 33 -29 40 -57 31 -88 139 -86 310 1 142 8 204 27 241 11
22 11 28 -3 42 -9 8 -18 38 -21 66 -5 59 9 67 48 26 31 -33 46 -32 66 6 13 27
14 36 3 56 -16 31 -112 103 -207 157 -64 36 -72 44 -68 66 7 40 -10 60 -43 54
-30 -6 -31 -6 -45 58 -3 15 -15 29 -25 33 -48 15 -46 31 12 119 218 327 575
664 916 861 65 39 84 45 136 46 69 2 112 -17 183 -77 44 -38 54 -31 30 20 -9
21 -8 29 6 45 20 22 120 45 170 39 20 -2 36 -2 36 2 0 3 -19 27 -41 53 -27 31
-45 45 -51 39 -6 -6 -27 -8 -49 -5 -43 6 -68 -2 -182 -59 -44 -22 -88 -38 -98
-36 -21 3 199 109 320 154 l71 26 45 -36 c40 -33 43 -39 35 -62 -16 -40 -12
-63 14 -89 25 -25 25 -25 191 -20 91 2 169 7 174 9 4 3 19 -22 32 -56 33 -84
52 -89 47 -12 l-3 59 63 30 c34 16 62 34 62 41 0 19 -35 43 -100 69 -66 26
-100 50 -100 70 0 23 41 64 68 68 37 6 91 -3 128 -20z m1319 -4316 c14 -22 13
-28 -6 -75 -15 -37 -18 -55 -11 -68 9 -16 11 -12 17 21 11 67 27 96 60 112 31
15 34 14 109 -26 43 -23 84 -41 91 -41 7 0 37 -18 65 -39 l53 -40 29 22 c22
17 44 22 87 22 51 0 63 -4 102 -35 24 -20 67 -50 95 -68 61 -38 88 -67 101
-106 8 -25 20 -33 78 -53 38 -13 76 -23 85 -23 9 0 25 -7 36 -15 18 -13 14
-19 -78 -105 -401 -376 -815 -599 -1337 -720 -68 -16 -128 -27 -133 -24 -20
13 -8 102 22 157 36 69 37 81 5 119 -51 60 -30 131 73 242 93 100 102 134 79
303 -27 193 -31 253 -18 253 6 0 27 -7 46 -15 l35 -14 25 49 c19 37 44 64 102
106 125 92 160 104 188 61z"/>
</g>
</svg>
